# xmcd CD database file
#
# Track frame offsets:
#	150
#	3665
#	48707
#	66630
#	85377
#	107382
#	131207
#	163520
#	197792
#	221447
#	249702
#	273822
#
# Disc length: 3782 seconds
#
# Revision: 0
# Processed by: cddbd v1.4PL0 Copyright (c) Steve Scherf et al.
# Submitted via: CDex 1.50beta10
#
DISCID=b20ec40c
DTITLE=John Etheridge - Ash
DYEAR=2001
DGENRE=Jazz
TTITLE0=In
TTITLE1=Ash
TTITLE2=Venerable Bede
TTITLE3=In Your Own Sweet Way
TTITLE4=Baiere
TTITLE5=Chips
TTITLE6=Infant Eyes
TTITLE7=Ugetsu
TTITLE8=You Don't Know What Love Is
TTITLE9=Little Wing
TTITLE10=81
TTITLE11=Out
EXTD=YEAR: 2001
EXTT0=
EXTT1=
EXTT2=
EXTT3=
EXTT4=
EXTT5=
EXTT6=
EXTT7=
EXTT8=
EXTT9=
EXTT10=
EXTT11=
PLAYORDER=
